<?xml version="1.0" ?><!DOCTYPE svg  PUBLIC '-//W3C//DTD SVG 1.1//EN'  'http://www.w3.org/Graphics/SVG/1.1/DTD/svg11.dtd'><svg enable-background="new 0 0 128 128" id="Слой_1" version="1.1" viewBox="0 0 128 128" xml:space="preserve" xmlns="http://www.w3.org/2000/svg" xmlns:xlink="http://www.w3.org/1999/xlink"><g><g><g><g><g><g><polygon fill="#E4C5BD" points="112.5,124 65.2,124 70.5,110 107.8,110       "/></g></g></g></g><g><g><g><g><polygon fill="#F8F6BF" points="99,119.5 79,119.5 80,114.5 98,114.5       "/></g></g></g></g><g><g><g><g><path d="M98.2,115.5l-0.2-1H80l-1,5h1.2l0,0c0.5-2.3,2.5-4,4.9-4H98.2z" fill="#FFFFFF"/></g></g></g></g><g><g><g><g><polygon fill="#FFFFFF" points="70.5,110 65.2,124 71.2,124 76.5,110       "/></g></g></g></g><g><g><g><g><path d="M89,101.5c-9.6,0-19.9-12.5-23.9-17.9C57.4,73.2,52.5,62,52.5,55c0-0.8,0.7-1.5,1.5-1.5h70        c0.8,0,1.5,0.7,1.5,1.5c0,7-5,18.2-12.6,28.6C108.9,89,98.6,101.5,89,101.5z M55.6,56.5c0.7,6.4,5.3,16.3,11.9,25.3        C75.1,92.1,83.4,98.5,89,98.5s13.9-6.4,21.5-16.7c6.7-9,11.3-18.9,11.9-25.3H55.6z" fill="#AF9BAC"/></g></g></g></g><g><g><g><g><path d="M113.9,35.5c0,13.8-11.2,75-25,75s-25-61.2-25-75H113.9z" fill="#F8F6BF"/></g></g></g></g><g opacity="0.15"><g><g><g><path d="M63.9,35.5c0,10.3,6.3,47.3,15.2,65.2c1.5-3.8,2.3-7.9,2.3-12.2c0-8.5-3.3-16.7-9-22.9l20.1-30.1H63.9        z" fill="#62345B"/></g></g></g></g><g><g><g><g><path d="M70.9,33.5h-7c0,13.8,11.2,75,25,75C75.1,108.5,70.9,47.3,70.9,33.5z" fill="#FFFFFF"/></g></g></g></g><g><g><g><g><path d="M89,111.5c-6.8,0-13.2-11.3-19.1-33.4c-4.4-16.6-7.4-35.7-7.4-43.1c0-0.8,0.7-1.5,1.5-1.5h50        c0.8,0,1.5,0.7,1.5,1.5c0,7.4-3,26.5-7.4,43.1C102.2,100.3,95.8,111.5,89,111.5z M65.5,36.5c0.7,17.4,12.3,72,23.5,72        s22.8-54.6,23.5-72H65.5z" fill="#AF9BAC"/></g></g></g></g><g><g><g><g><path d="M112.5,125.5C112.5,125.5,112.5,125.5,112.5,125.5H65.2c-0.5,0-1-0.2-1.2-0.6        c-0.3-0.4-0.3-0.9-0.2-1.4l5.3-14c0.2-0.6,0.8-1,1.4-1h37.3c0.6,0,1.2,0.4,1.4,1l4.7,13.8c0.1,0.2,0.2,0.4,0.2,0.7        C114,124.8,113.4,125.5,112.5,125.5z M67.4,122.5h43l-3.7-11H71.5L67.4,122.5z" fill="#AF9BAC"/></g></g></g></g></g><g><g><g><g><g><path d="M75.6,4l8.9,6.1c6.2,4.2,7.9,12.7,3.7,19L64.6,64.5l-27-4.1L75.6,4z" fill="#50B2A0"/></g></g></g><g><g><g><g><path d="M17.9,10.1L22.4,7l-2-3l-8.9,6.1c-6.2,4.2-7.9,12.7-3.7,19l23.6,35.4l5.8-0.9l-23-34.5         C10,22.8,11.7,14.3,17.9,10.1z" fill="#FFFFFF"/></g></g></g></g><g><g><g><path d="M64.6,66c-0.1,0-0.2,0-0.2,0l-27-4.1c-0.5-0.1-0.9-0.4-1.1-0.9c-0.2-0.5-0.2-1,0.1-1.4l38-56.4        c0.2-0.3,0.6-0.6,1-0.6c0.4-0.1,0.8,0,1.1,0.2l8.9,6.1c6.9,4.7,8.7,14.1,4.1,21.1L65.8,65.3C65.6,65.8,65.1,66,64.6,66z         M40.1,59.3l23.7,3.6L87,28.2c3.7-5.6,2.2-13.2-3.3-16.9L76,6.1L40.1,59.3z" fill="#62355C"/></g></g></g><g><g><g><path d="M20.4,4l-8.9,6.1c-6.2,4.2-7.9,12.7-3.7,19l23.6,35.4l27-4.1L20.4,4z" fill="#65C5B4"/></g></g></g><g><g><g><polygon fill="#44998B" points="20.4,4 75.4,4 60.7,26.1 35.3,26.1       "/></g></g></g><g><g><g><path d="M60.7,27.6H35.3c-0.5,0-1-0.2-1.2-0.7L19.2,4.8c-0.3-0.5-0.3-1.1-0.1-1.5c0.3-0.5,0.8-0.8,1.3-0.8h55        c0.6,0,1.1,0.3,1.3,0.8C77,3.8,77,4.4,76.7,4.8L61.9,27C61.6,27.4,61.2,27.6,60.7,27.6z M36.1,24.6h23.7L72.6,5.5H23.2        L36.1,24.6z" fill="#62355C"/></g></g></g><g><g><g><path d="M31.4,66c-0.5,0-1-0.2-1.2-0.7L6.5,29.9C1.9,23,3.8,13.5,10.6,8.8l8.9-6.1c0.3-0.2,0.7-0.3,1.1-0.2        c0.4,0.1,0.7,0.3,1,0.6l38,56.4c0.3,0.4,0.3,1,0.1,1.4c-0.2,0.5-0.6,0.8-1.1,0.9l-27,4.1C31.6,66,31.5,66,31.4,66z M20,6.1        l-7.7,5.2c-5.5,3.8-7,11.4-3.3,16.9l23.1,34.6l23.7-3.6L20,6.1z" fill="#62355C"/></g></g></g><g><g><g><circle cx="47.9" cy="86.5" fill="#CCCCCC" r="27.5"/></g></g></g><g><g><g><g><path d="M25.9,86.5c0-14.3,10.9-26,24.7-27.4C49.8,59,48.8,59,47.9,59c-15.2,0-27.5,12.3-27.5,27.5         S32.7,114,47.9,114c0.9,0,1.8,0,2.8-0.1C36.8,112.5,25.9,100.8,25.9,86.5z" fill="#FFFFFF"/></g></g></g></g><g><g><g><path d="M28.2,86.5c0,0.8,0.6,1.4,1.4,1.4s1.4-0.6,1.4-1.4c0-9.4,7.6-17,17-17c0.8,0,1.4-0.6,1.4-1.4        s-0.6-1.4-1.4-1.4C37,66.8,28.2,75.6,28.2,86.5z" fill="#FFFFFF"/></g></g></g><g><g><g><path d="M46.5,104.8c0,0.8,0.6,1.4,1.4,1.4c10.9,0,19.7-8.8,19.7-19.7c0-0.8-0.6-1.4-1.4-1.4        c-0.8,0-1.4,0.6-1.4,1.4c0,9.4-7.6,17-17,17C47.2,103.5,46.5,104.1,46.5,104.8z" fill="#FFFFFF"/></g></g></g><g><g><g><path d="M47.9,115.5c-16,0-29-13-29-29s13-29,29-29s29,13,29,29S63.9,115.5,47.9,115.5z M47.9,60.5        c-14.3,0-26,11.7-26,26s11.7,26,26,26s26-11.7,26-26S62.2,60.5,47.9,60.5z" fill="#62355C"/></g></g></g></g></g></g></svg>